<?xml version="1.0" encoding="UTF-8"?>
<svg id="Layer_1" data-name="Layer 1" xmlns="http://www.w3.org/2000/svg" viewBox="0 0 582.4 609.75">
  <defs>
    <style>
      .cls-1 {
        stroke-width: 3px;
      }

      .cls-1, .cls-2, .cls-3 {
        fill: #370052;
        stroke-miterlimit: 10;
      }

      .cls-1, .cls-3 {
        stroke: #fff;
      }

      .cls-2 {
        stroke: #370052;
        stroke-width: 5px;
      }
    </style>
  </defs>
  <polygon class="cls-2" points="302.59 217.39 291.94 241.65 281.3 217.39 302.59 217.39"/>
  <path class="cls-2" d="M456.28,66.2l-33.72,24.36c0-27.45-8.72-54.2-24.92-76.38l-4.73-6.5c0,18.71-4.3,37.17-12.52,53.97l-4.24,8.6-31.69-17.88-31.67-12.19-20.37-22.49-.17-.19-.77.85-20.37,22.49-31.67,12.19-31.69,17.88-4.24-8.6c-8.22-16.8-12.52-35.26-12.52-53.97l-4.73,6.5c-16.2,22.18-24.92,48.92-24.92,76.38l-33.72-24.36,1.62,9.72c4.34,25.96,10.86,51.54,19.5,76.4l-8.02,24.63c-2.76,8.49-4.36,17.32-4.78,26.25l-1.02,22.68,8.95,10.96-1.99,10.78c-3.45,18.77-.27,38.15,9.01,54.84,4.65,8.39,10.07,16.32,16.16,23.69,6.08,7.37,12.83,14.18,20.18,20.37,8.37,7.04,17.32,13.39,26.7,18.98l25.5,15.16-10.11-34.01c-1.31-4.4-2.35-8.89-3.07-13.44-.35-2.18-.52-4.38-.52-6.56,0-8.39,2.55-16.63,7.41-23.59,9.12-13.06,22.9-22.12,38.52-25.29l2.39-.48c6.04-1.23,12.21-1.87,18.36-1.91v-.64c5.84.08,11.69.73,17.42,1.89l2.39.48c15.62,3.18,29.4,12.23,38.52,25.29,4.86,6.96,7.41,15.2,7.41,23.59,0,2.18-.17,4.38-.52,6.56-.73,4.55-1.77,9.03-3.07,13.44l-10.11,34.01,25.5-15.16c9.39-5.59,18.34-11.94,26.7-18.98,7.35-6.19,14.1-13,20.18-20.37,6.08-7.37,11.5-15.3,16.16-23.69,9.28-16.7,12.46-36.07,9.01-54.84l-1.99-10.78,8.95-10.96-1.02-22.68c-.42-8.93-2.01-17.75-4.78-26.25l-8.02-24.63c8.64-24.86,15.16-50.44,19.5-76.4l1.62-9.72ZM401.02,213.26l-5,7.77c-2.04,3.16-4.9,5.71-8.26,7.41l-8.66,4.32-17.19,7.54c-.79.35-1.27,1.18-1.16,2.06l3.05,26.17c.44,3.76.12,7.56-.93,11.19l-5.71,19.69-12.67-18.71c-3.84-5.69-9.88-9.49-16.68-10.49l-11.46-1.68-2.24-.35c-7.5-1.18-15.06-1.72-22.61-1.58v.66c-7.25-.1-14.49.44-21.68,1.58l-2.24.35-11.46,1.68c-6.79,1-12.83,4.8-16.68,10.49l-12.67,18.71-5.71-19.69c-1.06-3.63-1.37-7.43-.93-11.19l3.05-26.17c.1-.87-.37-1.7-1.16-2.06l-17.19-7.54-8.66-4.32c-3.36-1.7-6.23-4.26-8.26-7.41l-5-7.77c-1.52,0-1.16-12.4-.66-21.87.35-6.83,1.74-13.58,4.11-20l1.45-3.92c2.26-6.13,7.68-10.53,14.12-11.5,1.37-.21,3.03-.31,4.76-.31,3.32,0,6.96.37,9.49,1.02l21.18,5.4,22.74,13-5.69-17.07-5.69-5.69,25.19,20.33,17.61,28.12,18.54-28.78,25.19-20.33-5.69,5.69-5.69,17.07,22.74-13,21.18-5.4c2.53-.64,6.17-1.02,9.49-1.02,1.72,0,3.38.1,4.76.31,6.44.98,11.86,5.38,14.12,11.5l1.45,3.92c2.37,6.42,3.76,13.17,4.11,20,.5,9.47.85,21.87-.66,21.87Z"/>
  <g>
    <path class="cls-3" d="M458.07,440.21l16.84-32.41H108.8l16.84,32.41-35.52,116.66,12.54,17.76,33.54-13.13c37.55-14.7,76.62-22.97,116.08-24.59l21.91,26.8,18.08,22.12,13.22-16.17,26.74-32.71c39.19,1.7,77.98,9.95,115.26,24.55l33.54,13.13,12.54-17.76-35.52-116.66Z"/>
    <g>
      <path class="cls-1" d="M133.36,424.95c5.5-.05,8.25-.08,13.75-.13,11.18.34,20.43,10.48,24.65,20.12-6.92,24-13.84,47.99-20.75,71.99-6.01,8.06,1.56,21.86-10.84,24.53-6.14,1.93-9.22,2.89-15.36,4.81-10.88,2.92-29.21-4.19-20.52-17.92,9.75-26.8,19.5-53.6,29.24-80.4,6.13-16.86-9.27-22.92-.17-23.01ZM133.89,516.92c7.11-22.14,14.21-44.29,21.32-66.43.9-2.8.63-4.14-.82-4.02-1.45.12-2.18.18-3.63.3-1.44.12-2.64,1.61-3.61,4.47-7.62,22.67-15.25,45.34-22.87,68.01-.96,2.87-.57,4.08,1.19,3.64,1.77-.44,2.66-.66,4.43-1.11,1.76-.44,3.09-2.06,3.99-4.86Z"/>
      <path class="cls-1" d="M203.9,424.44c3.39,7.36,9.6,10.11,8.18,18.47-4.33.17-6.49.26-10.81.47-4.79,23.21-21.87,64.94-9.82,85.49-7.47,1.35-11.19,2.1-18.6,3.78-15.62-12.55,8.67-70.51,13.18-88.46-4.28.26-6.41.39-10.68.68,2.53-9.05-6.23-12.14-10.68-20.2,13.08-.1,26.15-.18,39.23-.24Z"/>
      <path class="cls-1" d="M262.54,532.21c-2.15-5.85-3.75-8.36-4.3-15.52-5.21-3.95-7.32-7.19-14.17-6.94-1.19,6.21.04,8.2,1.35,12.94-7.47.37-11.2.64-18.64,1.34-5.49-14.66,4.52-35.69,7.89-50.12,4.1-17.56,7.12-31.58,3.63-49.58,7.93-.01,11.84.1,19.7.27,13.65,38.9,8.4,81.05,18.18,120.8-5.46-5.28-8.19-7.91-13.65-13.19ZM247.72,489.72c4.17-.11,5.34,2.15,8.68,4.14-1.06-13.49-2.12-26.98-3.19-40.46-1.66,12.13-3.32,24.27-5.49,36.32Z"/>
      <path class="cls-1" d="M292.94,512.4c.02,15.56.14,31.13-.08,46.7-5.43,5.25-8.14-5.45-13.57-10.7-6.92-39.69.9-83.1-2.38-123.39,10.95.24,16.43.28,27.39.04,9.04-.19,10.07,4.97,10.29,20.31.15,10.27.3,20.55.45,30.82.17,11.76-2.1,20.24-6.85,25.87,2.8,10.97,8.17,23.02,8.02,34.48-5.83,5.64-8.74,8.45-14.58,14.09-2.04-13-5.19-25.86-7.77-38.77-.37.22-.55.32-.92.54ZM298.42,448.79c-2.23.45-3.35.67-5.58,1.12.02,12.25.04,24.51.06,36.76,2.27-.98,3.41-1.47,5.68-2.45,1.37-.59,2.05-2.39,2.03-5.41-.06-10.36-.09-15.54-.15-25.9-.02-3.01-.7-4.39-2.05-4.12Z"/>
      <path class="cls-1" d="M336.91,505.04c9.59.32,14.38.58,23.93,1.33.91,8.16-.16,11.57-3.62,17.81-17.31-1.45-25.09-3.06-38.08,9.5,11.4-32.9-2.17-74.42,5.16-109.07,11.9-.32,23.79-.29,35.69-.25-2.92,7.16-7.94,9.82-7.06,17.98-7.35-.19-11.02-.25-18.38-.34.31,8.43.47,12.64.79,21.07,6.87.13,10.3.24,17.16.52.8,8.14,1.21,12.21,2.01,20.34-7.36-.42-11.04-.57-18.42-.76.33,8.75.49,13.12.82,21.87Z"/>
      <path class="cls-1" d="M393.19,424.51c5.95.03,8.92.05,14.87.09-11.02,20.68-6.7,32.74-1.17,54.34,4.59,17.95,14.77,38.12,4.67,54.16-6.34-1.47-9.52-2.15-15.91-3.37,8.08-12.59-12.43-43.88-17.77-56.55,2.57,14.43,12.99,41.93,2.49,53.91-6.86-1.06-10.3-1.51-17.21-2.29,13.5-31.47-11.36-67.15,2.79-100.42,5.58.02,8.37.03,13.95.06-2.48,12.43-3.87,14.67-.49,26.65,2.87,10.14,8.55,20.21,12.74,29.79-4.93-22.87-9.62-35,1.04-56.38Z"/>
      <path class="cls-1" d="M454.06,545.17c4.08-6.27,7.96-9,4.63-16.68-6.59-1.71-9.87-2.61-16.47-4.24,1.29,6.94-3.12,9.27-8.41,14.67-7.17-2.08-10.78-3.05-18.03-4.81,8.98-10.3,8.45-13.29,6.64-27.23-1.14-8.77-2.36-17.53-3.67-26.28-1.05-7.04-2.16-14.06-3.32-21.08-2.66-16.17,2.11-21.32,11.68-34.76,7.92.07,11.87.11,19.79.18-6.31,13.51-11.66,17.68-5.59,31.75,4.35,10.09,9.15,20.04,13.78,30.01,4.73,10.21,9.51,20.4,14.33,30.57,6.59,13.93,12.22,19.27,2.91,33.62-7.31-2.29-10.96-3.43-18.27-5.72ZM437.88,501.67c4.04.84,6.05,1.29,10.09,2.16-6.42-14.98-12.74-29.99-18.98-45.04,3.07,14.28,6.04,28.57,8.89,42.89Z"/>
    </g>
  </g>
</svg>